<svg version="1.0" xmlns="http://www.w3.org/2000/svg" xmlns:xlink="http://www.w3.org/1999/xlink" width="100%" height="100%" viewBox="80 105 180 38">
    <rect x="0" y="0" width="100%" height="100%" fill="#ffffff" fill-opacity="0" class="background">

    </rect>
    <g fill="#fd9248" class="iconblsvg-g iconsvg" transform="translate(82.96754455566406,105.59788703918457)">
        <g class="tp-name" opacity="1" transform="matrix(1,0,0,1,0,0)">
            <g transform="translate(0, 2.3665392870994744)" fill="url(#e0147b37-4368-4f93-ae77-82c7762ea114)">
                <g transform="scale(1)">
                    <path d="M26.85-6.2L26.85-5.35Q26.85-4.53 26.57-3.6 26.29-2.67 25.66-1.87 25.02-1.07 24-0.53 22.98 0 21.51 0L21.51 0 4.75 0Q4.28 0 3.87-0.17 3.46-0.34 3.17-0.64 2.87-0.93 2.7-1.34 2.53-1.75 2.53-2.22L2.53-2.22 2.53-22.12Q2.53-22.58 2.7-22.98 2.87-23.39 3.17-23.7 3.46-24 3.87-24.17 4.28-24.34 4.75-24.34L4.75-24.34 19.52-24.34Q20.34-24.34 21.27-24.05 22.2-23.76 23.01-23.13 23.82-22.49 24.35-21.47 24.88-20.45 24.88-18.98L24.88-18.98 24.88-18.15Q24.88-16.97 24.49-15.63 24.1-14.28 23.24-13.07L23.24-13.07Q23.99-12.61 24.64-11.97 25.29-11.32 25.78-10.47 26.28-9.62 26.57-8.56 26.85-7.49 26.85-6.2L26.85-6.2ZM22.44-5.38L22.44-6.2Q22.44-7.06 22.17-7.75 21.9-8.44 21.41-8.93 20.91-9.42 20.22-9.68 19.52-9.95 18.66-9.95L18.66-9.95 8.71-9.95 8.71-14.39 16.67-14.39Q17.53-14.39 18.23-14.66 18.93-14.92 19.42-15.41 19.91-15.91 20.17-16.59 20.44-17.28 20.44-18.15L20.44-18.15 20.44-18.98Q20.44-19.93 19.52-19.93L19.52-19.93 6.94-19.93 6.94-4.41 21.51-4.41Q21.63-4.41 21.8-4.43 21.97-4.45 22.1-4.53 22.24-4.62 22.34-4.82 22.44-5.02 22.44-5.38L22.44-5.38ZM50.26-18.35L50.26-2.22Q50.26-1.75 50.09-1.34 49.92-0.93 49.63-0.64 49.33-0.34 48.93-0.17 48.53 0 48.07 0L48.07 0 38.09 0Q37.28 0 36.35-0.19 35.43-0.37 34.53-0.79 33.63-1.21 32.79-1.84 31.95-2.48 31.32-3.39 30.69-4.29 30.31-5.48 29.93-6.67 29.93-8.16L29.93-8.16 29.93-18.35 34.34-18.35 34.34-8.16Q34.34-7.3 34.64-6.61 34.93-5.92 35.44-5.43 35.95-4.94 36.64-4.68 37.33-4.41 38.13-4.41L38.13-4.41 45.85-4.41 45.85-18.35 50.26-18.35ZM74.64-18.35L74.64 1.77Q74.64 2.9 74.35 3.81 74.06 4.72 73.59 5.41 73.11 6.09 72.48 6.58 71.85 7.06 71.17 7.37 70.48 7.67 69.78 7.82 69.09 7.96 68.46 7.96L68.46 7.96 60.5 7.96 60.5 3.55 68.46 3.55Q69.34 3.55 69.78 3.09 70.22 2.63 70.22 1.77L70.22 1.77 70.22-18.35 74.64-18.35ZM68.46-4.41L68.46 0 60.5 0Q59.55 0 58.47-0.32 57.39-0.65 56.46-1.38 55.52-2.12 54.91-3.3 54.3-4.48 54.3-6.2L54.3-6.2 54.3-18.35 58.72-18.35 58.72-6.2Q58.72-5.33 59.17-4.87 59.63-4.41 60.53-4.41L60.53-4.41 68.46-4.41Z" transform="translate(-2.5299999713897705, 26.110000610351562)">

                    </path>
                </g>
            </g>
            <g transform="translate(75.11000061035156, 0)" mask="url(#1d5cbcfa-cb38-4ac9-adfd-7ca900f5c4bd)">
                <g>
                    <g class="imagesvg">
                        <g>
                            <rect fill="#fd9248" fill-opacity="0" stroke-width="2" x="0" y="0" width="26" height="38" class="image-rect">

                            </rect>
                            <svg x="0" y="0" width="26" height="38" class="image-svg-svg primary" style="overflow: visible;">
                                <svg xmlns="http://www.w3.org/2000/svg" viewBox="0 0 69 100">
                                    <title>资源 39
                                    </title>
                                    <path fill="#f7921c" d="M0 0v18.34l52.4 27.51L69 36.68 0 0z">

                                    </path>
                                    <path fill="#ed1b24" d="M0 25.33v18.34l34.5 18.34L0 80.79V100l69-37.55L0 25.33z">

                                    </path>
                                </svg>
                            </svg>
                            <!---->
                        </g>
                    </g>
                </g>
                <rect width="38.77491569519043" height="50.80422592163086" transform="translate(-6, -6)" style="pointer-events:none;" fill="url(#ZZeM9ZprwfMeICSL55bVr)">

                </rect>
            </g>
            <g fill="url(#339be883-9aeb-426f-b50c-d952ca0724ef)" transform="translate(104.88491630554199, 2.3665392870994744)">
                <g transform="scale(1)">
                    <path d="M37.26-7.16L37.26-7.16Q37.26-5.86 36.93-4.81 36.6-3.77 36.05-2.97 35.51-2.17 34.78-1.61 34.05-1.05 33.27-0.7 32.49-0.34 31.68-0.17 30.88 0 30.16 0L30.16 0 13.14 0 13.14-4.41 30.16-4.41Q31.44-4.41 32.14-5.16 32.85-5.91 32.85-7.16L32.85-7.16Q32.85-7.77 32.66-8.28 32.47-8.79 32.12-9.17 31.78-9.54 31.28-9.74 30.78-9.95 30.16-9.95L30.16-9.95 20.01-9.95Q18.94-9.95 17.7-10.33 16.47-10.71 15.4-11.56 14.34-12.41 13.64-13.78 12.93-15.16 12.93-17.14L12.93-17.14Q12.93-19.13 13.64-20.5 14.34-21.86 15.4-22.72 16.47-23.58 17.7-23.96 18.94-24.34 20.01-24.34L20.01-24.34 35.04-24.34 35.04-19.93 20.01-19.93Q18.76-19.93 18.05-19.16 17.35-18.4 17.35-17.14L17.35-17.14Q17.35-15.87 18.05-15.13 18.76-14.39 20.01-14.39L20.01-14.39 30.16-14.39 30.2-14.39Q30.91-14.38 31.71-14.2 32.51-14.02 33.3-13.65 34.09-13.27 34.8-12.71 35.51-12.14 36.06-11.34 36.61-10.54 36.94-9.51 37.26-8.47 37.26-7.16ZM60.18-12.27L60.18-12.27Q60.18-11.36 59.85-10.3 59.53-9.23 58.81-8.33 58.09-7.42 56.92-6.81 55.76-6.2 54.1-6.2L54.1-6.2 46.14-6.2 46.14-10.39 54.1-10.39Q55-10.39 55.49-10.94 55.98-11.49 55.98-12.31L55.98-12.31Q55.98-13.17 55.43-13.66 54.88-14.16 54.1-14.16L54.1-14.16 46.14-14.16Q45.24-14.16 44.75-13.61 44.25-13.05 44.25-12.24L44.25-12.24 44.25-6.08Q44.25-5.19 44.8-4.7 45.36-4.21 46.17-4.21L46.17-4.21 54.1-4.21 54.1 0 46.14 0Q45.22 0 44.16-0.32 43.1-0.65 42.19-1.37 41.28-2.09 40.67-3.25 40.06-4.41 40.06-6.08L40.06-6.08 40.06-12.27Q40.06-13.19 40.38-14.25 40.71-15.31 41.43-16.22 42.15-17.13 43.31-17.74 44.47-18.35 46.14-18.35L46.14-18.35 54.1-18.35Q55.02-18.35 56.08-18.03 57.14-17.7 58.05-16.98 58.95-16.26 59.56-15.1 60.18-13.94 60.18-12.27ZM71.21-4.41L71.21 0 69.24 0Q68.29 0 67.21-0.32 66.13-0.65 65.2-1.38 64.27-2.12 63.66-3.3 63.04-4.48 63.04-6.2L63.04-6.2 63.04-26.11 67.46-26.11 67.46-6.2Q67.46-5.38 67.97-4.9 68.48-4.41 69.24-4.41L69.24-4.41 71.21-4.41ZM82.11-4.41L82.11 0 80.14 0Q79.19 0 78.11-0.32 77.03-0.65 76.1-1.38 75.16-2.12 74.55-3.3 73.94-4.48 73.94-6.2L73.94-6.2 73.94-26.11 78.36-26.11 78.36-6.2Q78.36-5.38 78.86-4.9 79.37-4.41 80.14-4.41L80.14-4.41 82.11-4.41Z" transform="translate(-12.930000305175781, 26.110000610351562)">

                    </path>
                </g>
            </g>
        </g>
        <!---->
    </g>
    <defs>
        <linearGradient x1="0" y1="1" x2="0" y2="0" id="e0147b37-4368-4f93-ae77-82c7762ea114">
            <stop offset="0%" stop-color="#fd9248">

            </stop>
            <stop offset="50%" stop-color="#fa1768">

            </stop>
            <stop offset="100%" stop-color="#f001ff">

            </stop>
        </linearGradient>
        <filter id="42443b3f1de60f6b6fd3b6a9844b4764" filterUnits="objectBoundingBox">
            <feColorMatrix type="matrix" values="0 0 0 0 0.99609375  0 0 0 0 0.99609375  0 0 0 0 0.99609375  0 0 0 1 0">

            </feColorMatrix>
        </filter>
        <linearGradient x1="0" y1="1" x2="0" y2="0" id="339be883-9aeb-426f-b50c-d952ca0724ef">
            <stop offset="0%" stop-color="#fd9248">

            </stop>
            <stop offset="50%" stop-color="#fa1768">

            </stop>
            <stop offset="100%" stop-color="#f001ff">

            </stop>
        </linearGradient>
        <filter id="42443b3f1de60f6b6fd3b6a9844b4764" filterUnits="objectBoundingBox">
            <feColorMatrix type="matrix" values="0 0 0 0 0.99609375  0 0 0 0 0.99609375  0 0 0 0 0.99609375  0 0 0 1 0">

            </feColorMatrix>
        </filter>
    </defs>
    <defs>
        <filter id="bd015823-d653-422c-89c7-1141caf3e6d2" filterUnits="userSpaceOnUse">
            <feColorMatrix type="matrix" values="0 0 0 0 0.99609375  0 0 0 0 0.99609375  0 0 0 0 0.99609375  0 0 0 1 0">

            </feColorMatrix>
        </filter>
        <linearGradient x1="0" y1="1" x2="0" y2="0" id="ZZeM9ZprwfMeICSL55bVr">
            <stop offset="0%" stop-color="#fd9248">

            </stop>
            <stop offset="50%" stop-color="#fa1768">

            </stop>
            <stop offset="100%" stop-color="#f001ff">

            </stop>
        </linearGradient>
        <filter id="42443b3f1de60f6b6fd3b6a9844b4764" filterUnits="objectBoundingBox">
            <feColorMatrix type="matrix" values="0 0 0 0 0.99609375  0 0 0 0 0.99609375  0 0 0 0 0.99609375  0 0 0 1 0">

            </feColorMatrix>
        </filter>
    </defs>
    <mask id="1d5cbcfa-cb38-4ac9-adfd-7ca900f5c4bd">
        <g filter="url(#bd015823-d653-422c-89c7-1141caf3e6d2)">
            <g>
                <g class="imagesvg">
                    <g>
                        <rect fill="#fd9248" fill-opacity="0" stroke-width="2" x="0" y="0" width="26" height="38" class="image-rect">

                        </rect>
                        <svg x="0" y="0" width="26" height="38" class="image-svg-svg primary" style="overflow: visible;">
                            <svg xmlns="http://www.w3.org/2000/svg" viewBox="0 0 69 100">
                                <title>资源 39
                                </title>
                                <path fill="#f7921c" d="M0 0v18.34l52.4 27.51L69 36.68 0 0z">
                                </path>
                                <path fill="#ed1b24" d="M0 25.33v18.34l34.5 18.34L0 80.79V100l69-37.55L0 25.33z">
                                </path>
                            </svg>
                        </svg>
                        <!---->
                    </g>
                </g>
            </g>
        </g>
    </mask>
</svg>